<?xml version="1.0" encoding="UTF-8"?>
<!DOCTYPE svg PUBLIC "-//W3C//DTD SVG 1.1//EN" "http://www.w3.org/Graphics/SVG/1.1/DTD/svg11.dtd">
<!-- Creator: CorelDRAW -->
<svg xmlns="http://www.w3.org/2000/svg" xml:space="preserve" width="8.5in" height="11in" style="shape-rendering:geometricPrecision; text-rendering:geometricPrecision; image-rendering:optimizeQuality; fill-rule:evenodd; clip-rule:evenodd"
viewBox="0 0 8.5 11"
 xmlns:xlink="http://www.w3.org/1999/xlink">
 <defs>
  <style type="text/css">
   <![CDATA[
    .fil1 {fill:#AE0DF3}
    .fil0 {fill:#E0D020}
    .fil2 {fill:white;fill-rule:nonzero}
   ]]>
  </style>
 </defs>
 <g id="Capa_x0020_1">
  <metadata id="CorelCorpID_0Corel-Layer"/>
  <circle class="fil0" cx="4.39282" cy="5.17012" r="4.05187"/>
  <path class="fil1" d="M2.93574 8.95171c-0.604642,-0.233201 -1.13924,-0.607236 -1.56378,-1.08185l0.170736 -0.669512 0.473209 -1.8556 0.473205 1.8556 0.446626 1.75137 3.93701e-006 -7.87402e-006z"/>
  <path class="fil1" d="M4.39282 1.11825c2.23741,0 4.05187,1.81446 4.05187,4.05187 0,1.13531 -0.467394,2.16152 -1.21996,2.89723 -2.26637,-0.000649606 -4.10413,-1.83878 -4.10413,-4.10531 0,-1.10269 0.435083,-2.10389 1.14278,-2.84153 0.043,-0.00135039 0.0861063,-0.00226378 0.129437,-0.00226378l3.93701e-006 7.87402e-006z"/>
  <path class="fil1" d="M2.00486 3.96181c0.1035,0 0.187441,0.0893543 0.187441,0.199531 0,0.110185 -0.0839409,0.199535 -0.187441,0.199535 -0.103504,0 -0.187441,-0.0893504 -0.187441,-0.199535 0,-0.110177 0.083937,-0.199531 0.187441,-0.199531zm3.93701e-006 -0.566811c-0.263311,0 -0.476846,0.372441 -0.476846,0.831701 0,0.053937 0.00298425,0.106654 0.00861417,0.157732 -0.127079,0.151268 -0.206154,0.363472 -0.206154,0.598433 0,0.292157 0.122248,0.549134 0.307043,0.697492 0.0874764,-0.184142 0.219559,-0.301461 0.367343,-0.301461 0.147776,0 0.27987,0.117315 0.367339,0.301461 0.184799,-0.148362 0.307043,-0.405331 0.307043,-0.697492 0,-0.234961 -0.0790787,-0.447169 -0.206154,-0.598437 0.00562598,-0.0510787 0.00861024,-0.103791 0.00861024,-0.157728 0,-0.45926 -0.213531,-0.831701 -0.476839,-0.831701z"/>
  <path class="fil2" d="M4.42689 5.0722l0 -2.49996 0.86215 0c0.163157,0 0.309374,0.0115866 0.43687,0.033878 0.128386,0.0231811 0.251421,0.0811339 0.368217,0.173858 0.117689,0.0936142 0.213976,0.226457 0.28798,0.399421 0.074,0.173858 0.110555,0.383378 0.110555,0.628559 0,0.376244 -0.0891575,0.681161 -0.267472,0.913862 -0.178315,0.233591 -0.477882,0.350386 -0.896921,0.350386l-0.901378 0zm0.331661 -0.29511l0.532272 0c0.220217,0 0.387831,-0.0320984 0.504626,-0.0962913 0.116799,-0.0650827 0.205063,-0.172071 0.266583,-0.322748 0.060626,-0.150673 0.0909409,-0.336122 0.0909409,-0.555449 0,-0.15335 -0.0151575,-0.287087 -0.0454724,-0.402098 -0.030311,-0.115012 -0.0757835,-0.211303 -0.137303,-0.28976 -0.060626,-0.0784606 -0.138193,-0.138193 -0.232697,-0.180098 -0.0936181,-0.0419016 -0.245185,-0.0632992 -0.453811,-0.0632992l-0.525138 0 0 1.90974z"/>
  <path class="fil1" d="M5.25858 5.96233l0 -0.703098 0.50489 0 0 0.23476 0.445654 0c0.145508,0 0.332465,-0.0139843 0.462689,-0.0854567 0.110795,-0.0618268 0.181051,-0.16398 0.228248,-0.279504 0.0652913,-0.162378 0.0845984,-0.349189 0.0845984,-0.522913 0,-0.126441 -0.0102992,-0.257421 -0.0426063,-0.380024 -0.0244252,-0.0926575 -0.062252,-0.182559 -0.121713,-0.25839l-0.000374016 -0.000484252c-0.0530079,-0.0685984 -0.120134,-0.118787 -0.199484,-0.153969 -0.111075,-0.0497205 -0.298591,-0.0557756 -0.418488,-0.0557756l-0.438524 0 0 0.834764 -0.50489 0 0 -1.3031 0.94876 0c0.150516,0 0.303378,0.00922835 0.451783,0.0351732l0.000476378 8.26772e-005c0.151213,0.0273031 0.286945,0.0961969 0.406732,0.191295 0.142449,0.113311 0.242705,0.267201 0.313756,0.433268 0.0882402,0.207315 0.117488,0.438681 0.117488,0.662512 0,0.344331 -0.0721929,0.68839 -0.285264,0.966449 -0.229748,0.300976 -0.605571,0.384413 -0.96574,0.384413l-0.987992 0 0 -3.93701e-006z"/>
  <path class="fil2" d="M5.34519 5.87572l0 -2.49996 0.86215 0c0.163157,0 0.309374,0.0115866 0.43687,0.033878 0.128386,0.0231811 0.251421,0.0811339 0.368217,0.173858 0.117689,0.0936142 0.213976,0.226457 0.28798,0.399421 0.074,0.173858 0.110555,0.383378 0.110555,0.628559 0,0.376244 -0.0891575,0.681161 -0.267472,0.913862 -0.178315,0.233591 -0.477882,0.350386 -0.896921,0.350386l-0.901378 0zm0.331661 -0.29511l0.532272 0c0.220217,0 0.387831,-0.0320984 0.504626,-0.0962913 0.116799,-0.0650827 0.205063,-0.172071 0.266583,-0.322748 0.060626,-0.150673 0.0909409,-0.336122 0.0909409,-0.555449 0,-0.15335 -0.0151575,-0.287087 -0.0454724,-0.402098 -0.030311,-0.115012 -0.0757835,-0.211303 -0.137303,-0.28976 -0.060626,-0.0784606 -0.138193,-0.138193 -0.232697,-0.180098 -0.0936181,-0.0419016 -0.245185,-0.0632992 -0.453811,-0.0632992l-0.525138 0 0 1.90974z"/>
 </g>
</svg>
